<svg width="80" height="26" viewBox="0 0 80 26" fill="none" xmlns="http://www.w3.org/2000/svg">
<g id="Group 316">
<path id="insidefi" d="M14.2477 5.15846C15.7389 5.15846 16.9527 5.50843 17.8352 6.48226C18.7329 7.44087 19.1818 8.76467 19.1818 10.4537V17.8943H15.3017V10.9786C15.3017 10.1265 15.0811 9.46462 14.6398 8.99292C14.1985 8.52122 13.6051 8.28537 12.8595 8.28537C12.1139 8.28537 11.5205 8.52122 11.0792 8.99292C10.638 9.46462 10.4173 10.1265 10.4173 10.9786V17.8943H6.5144V5.15846H10.4173V6.84744C10.813 6.28445 11.3455 5.84318 12.015 5.52364C12.5678 5.24728 13.1775 5.20666 13.8444 5.15846C13.9852 5.14827 14.1017 5.15846 14.2477 5.15846Z" fill="#3F4254"/>
<path id="insidefi_2" fill-rule="evenodd" clip-rule="evenodd" d="M3.49045 25.7625C3.71719 25.7625 3.90101 25.5787 3.90101 25.3519V7.08222C3.90101 6.00519 3.0279 5.13208 1.95087 5.13208V5.13208C0.873838 5.13208 0.000732422 6.00519 0.000732422 7.08222V25.3519C0.000732422 25.5787 0.184544 25.7625 0.411287 25.7625H3.49045Z" fill="url(#paint0_linear_529_116628)"/>
<path id="insidefi_3" d="M26.197 17.8942C25.0862 17.8942 24.1428 17.8866 23.2755 17.5062C22.4082 17.1258 21.7235 16.6085 21.2213 15.9542C20.7192 15.2847 20.4377 14.5391 20.3768 13.7174H24.2341C24.2798 14.1587 24.4852 14.5162 24.8504 14.7901C25.2156 15.064 25.6644 15.201 26.197 15.201C26.6839 15.201 27.0567 15.1097 27.3154 14.9271C27.5893 14.7293 27.7262 14.4782 27.7262 14.1739C27.7262 13.8087 27.536 13.5424 27.1556 13.375C26.7752 13.1924 26.159 12.9946 25.3069 12.7816C24.3939 12.5686 23.6331 12.3479 23.0244 12.1197C22.4158 11.8762 21.8908 11.5035 21.4496 11.0013C21.0083 10.484 20.7877 9.79164 20.7877 8.92432C20.7877 8.19395 20.9855 7.53205 21.3811 6.93862C21.7919 6.32998 22.3854 5.85067 23.1614 5.5007C23.9526 5.15073 24.7743 5.15834 25.8546 5.15834C27.4523 5.15834 28.8218 5.37136 29.7347 6.1626C30.6629 6.95384 31.1955 8.00375 31.3324 9.31233H27.7262C27.6653 8.87107 27.4675 8.5211 27.1328 8.26242C26.8132 8.00375 26.3872 7.87441 25.8546 7.87441C25.3981 7.87441 25.0482 7.96571 24.8047 8.1483C24.5613 8.31568 24.4395 8.55153 24.4395 8.85585C24.4395 9.02839 24.482 9.18055 24.5669 9.31233C24.6617 9.45947 24.8095 9.5812 25.0101 9.67752C25.4058 9.86012 26.0144 10.0427 26.8361 10.2253C27.7795 10.4688 28.5479 10.7122 29.1413 10.9557C29.7347 11.1839 30.2521 11.5643 30.6934 12.0969C31.1498 12.6142 31.3857 13.3142 31.4009 14.1967C31.4009 14.9423 31.1879 15.6118 30.7618 16.2052C30.351 16.7834 29.75 17.2399 28.9587 17.5747C28.6507 17.7076 28.3222 17.8141 27.9734 17.8942C27.3369 17.8942 26.8209 17.8942 26.197 17.8942Z" fill="#3F4254"/>
<path id="insidefi_4" fill-rule="evenodd" clip-rule="evenodd" d="M37.2297 12.83V5.13208H33.3295V6.67254V12.83H37.2297Z" fill="#3F4254"/>
<path id="insidefi_5" fill-rule="evenodd" clip-rule="evenodd" d="M35.2796 17.8591C36.3566 17.8591 37.2297 16.986 37.2297 15.909V14.3303C37.2297 14.1252 37.0634 13.9589 36.8583 13.9589H33.74C33.5133 13.9589 33.3295 14.1427 33.3295 14.3694V14.7394V15.909C33.3295 16.986 34.2026 17.8591 35.2796 17.8591V17.8591Z" fill="url(#paint1_linear_529_116628)"/>
<path id="insidefi_6" d="M38.6632 11.5036C38.6632 10.195 38.9067 9.04623 39.3936 8.05718C39.8957 7.06814 40.5728 6.30733 41.4249 5.77477C42.277 5.2422 43.228 4.97592 44.278 4.97592C45.1148 4.97592 45.8756 5.15091 46.5604 5.50088C47.2603 5.85085 47.8081 6.32255 48.2037 6.91597V1.00452H52.1066V17.8944H48.2037V16.0685C47.8385 16.6771 47.3136 17.164 46.6288 17.5292C45.9593 17.8944 45.186 17.8944 44.2883 17.8944C43.2384 17.8944 42.277 17.8107 41.4249 17.2781C40.5728 16.7304 39.8957 15.9619 39.3936 14.9729C38.9067 13.9686 38.6632 12.8122 38.6632 11.5036ZM48.2037 11.5265C48.2037 10.5526 47.9298 9.78421 47.382 9.22121C46.8495 8.65822 46.1952 8.37672 45.4192 8.37672C44.6431 8.37672 43.9812 8.65822 43.4335 9.22121C42.9009 9.76899 42.6346 10.5298 42.6346 11.5036C42.6346 12.4775 42.9009 13.2535 43.4335 13.8317C43.9812 14.3947 44.6431 14.6762 45.4192 14.6762C46.1952 14.6762 46.8495 14.3947 47.382 13.8317C47.9298 13.2687 48.2037 12.5003 48.2037 11.5265Z" fill="#3F4254"/>
<path id="insidefi_7" d="M66.3089 11.3209C66.3089 11.6861 66.286 12.0665 66.2404 12.4622H57.4074C57.4683 13.2534 57.7194 13.862 58.1606 14.2881C58.6171 14.6989 59.1725 14.9043 59.8268 14.9043C60.8006 14.9043 61.4778 14.4935 61.8582 13.6718H66.0122C65.7991 14.5087 65.4111 15.2619 64.8481 15.9314C64.3003 16.6009 63.608 17.1259 62.7711 17.5063C61.9342 17.8867 60.9984 18.0769 59.9638 18.0769C58.716 18.0769 57.6053 17.8106 56.6314 17.2781C55.6576 16.7455 54.8968 15.9847 54.349 14.9956C53.8012 14.0066 53.5273 12.8502 53.5273 11.5264C53.5273 10.2026 53.7936 9.04614 54.3262 8.05709C54.874 7.06804 55.6348 6.30724 56.6086 5.77468C57.5824 5.24211 58.7008 4.97583 59.9638 4.97583C61.1963 4.97583 62.2918 5.2345 63.2504 5.75185C64.209 6.2692 64.9546 7.00718 65.4872 7.96579C66.035 8.92441 66.3089 10.0428 66.3089 11.3209ZM62.3146 10.2939C62.3146 9.62435 62.0864 9.09179 61.6299 8.69617C61.1734 8.30055 60.6028 8.10274 59.9181 8.10274C59.2638 8.10274 58.7084 8.29294 58.2519 8.67334C57.8107 9.05375 57.5368 9.59392 57.4303 10.2939H62.3146Z" fill="#3F4254"/>
<path id="insidefi_8" d="M74.1298 8.39929H72.0299V17.8941H68.127V8.39929H66.7119V5.15826H68.127V4.79308C68.127 3.22582 68.5759 2.03896 69.4736 1.23251C70.3714 0.410835 71.6876 0 73.4222 0C73.7113 0 73.9243 0.00760794 74.0613 0.0228239V3.33233C73.3157 3.28668 72.7907 3.39319 72.4864 3.65187C72.1821 3.91054 72.0299 4.37463 72.0299 5.04414V5.15826H74.1298V8.39929Z" fill="#3F4254"/>
<path id="insidefi_9" fill-rule="evenodd" clip-rule="evenodd" d="M80.0011 17.8592V6.05579H76.1008V8.41783V17.8592H80.0011Z" fill="#3F4254"/>
<path id="insidefi_10" d="M78.051 1.02649C79.128 1.02649 80.0011 1.8996 80.0011 2.97663V4.55531C80.0011 4.76046 79.8348 4.92676 79.6296 4.92676H76.4723C76.2671 4.92676 76.1008 4.76046 76.1008 4.55531V2.97663C76.1008 1.8996 76.9739 1.02649 78.051 1.02649V1.02649Z" fill="url(#paint2_linear_529_116628)"/>
</g>
<defs>
<linearGradient id="paint0_linear_529_116628" x1="1.95087" y1="5.13208" x2="1.95087" y2="25.7625" gradientUnits="userSpaceOnUse">
<stop stop-color="#007FFF"/>
<stop offset="1" stop-color="#00D8FF"/>
</linearGradient>
<linearGradient id="paint1_linear_529_116628" x1="35.2796" y1="13.9589" x2="35.2796" y2="17.8591" gradientUnits="userSpaceOnUse">
<stop stop-color="#007FFF"/>
<stop offset="1" stop-color="#00D8FF"/>
</linearGradient>
<linearGradient id="paint2_linear_529_116628" x1="78.051" y1="1.02649" x2="78.051" y2="4.92676" gradientUnits="userSpaceOnUse">
<stop stop-color="#007FFF"/>
<stop offset="1" stop-color="#00D8FF"/>
</linearGradient>
</defs>
</svg>
