<svg width="84" height="27" viewBox="0 0 84 27" fill="none" xmlns="http://www.w3.org/2000/svg">
<g id="Group 315">
<path id="insidefi" d="M15.2821 5.35211C16.8292 5.35211 18.0885 5.7152 19.0041 6.72555C19.9355 7.72011 20.4012 9.09356 20.4012 10.8459V18.5656H16.3756V11.3905C16.3756 10.5065 16.1467 9.81975 15.6889 9.33036C15.2311 8.84097 14.6154 8.59628 13.8418 8.59628C13.0683 8.59628 12.4526 8.84097 11.9948 9.33036C11.537 9.81975 11.3081 10.5065 11.3081 11.3905V18.5656H7.25879V5.35211H11.3081V7.10443C11.7185 6.52032 12.2711 6.06251 12.9657 5.73099C13.5391 5.44426 14.1718 5.40212 14.8636 5.35211C15.0098 5.34154 15.1306 5.35211 15.2821 5.35211Z" fill="#F5F8FA"/>
<path id="insidefi_2" fill-rule="evenodd" clip-rule="evenodd" d="M4.12058 26.7286C4.35583 26.7286 4.54653 26.5379 4.54653 26.3027V7.34785C4.54653 6.23043 3.64069 5.32458 2.52327 5.32458V5.32458C1.40585 5.32458 0.5 6.23043 0.5 7.34785V26.3027C0.5 26.5379 0.690705 26.7286 0.925951 26.7286H4.12058Z" fill="url(#paint0_linear_529_103530)"/>
<path id="insidefi_3" d="M27.6781 18.5653C26.5256 18.5653 25.5469 18.5574 24.647 18.1627C23.7472 17.7681 23.0368 17.2313 22.5158 16.5525C21.9949 15.8579 21.7028 15.0843 21.6396 14.2318H25.6416C25.6889 14.6897 25.9021 15.0606 26.2809 15.3448C26.6598 15.629 27.1255 15.771 27.6781 15.771C28.1832 15.771 28.57 15.6763 28.8384 15.4869C29.1225 15.2817 29.2646 15.0212 29.2646 14.7054C29.2646 14.3266 29.0673 14.0503 28.6726 13.8766C28.278 13.6872 27.6386 13.482 26.7545 13.261C25.8073 13.0399 25.018 12.811 24.3865 12.5742C23.7551 12.3217 23.2104 11.9349 22.7526 11.4139C22.2948 10.8772 22.0659 10.1589 22.0659 9.25903C22.0659 8.50127 22.2711 7.81455 22.6816 7.19887C23.1078 6.5674 23.7235 6.07011 24.5286 5.70702C25.3495 5.34393 26.202 5.35182 27.3229 5.35182C28.9805 5.35182 30.4013 5.57283 31.3485 6.39374C32.3115 7.21465 32.864 8.30393 33.0061 9.66159H29.2646C29.2015 9.20378 28.9963 8.84068 28.6489 8.57231C28.3174 8.30394 27.8754 8.16975 27.3229 8.16975C26.8493 8.16975 26.4862 8.26447 26.2336 8.45391C25.981 8.62756 25.8547 8.87226 25.8547 9.18799C25.8547 9.367 25.8988 9.52487 25.9869 9.66159C26.0852 9.81424 26.2385 9.94054 26.4467 10.0405C26.8572 10.2299 27.4886 10.4194 28.3411 10.6088C29.3199 10.8614 30.1171 11.114 30.7328 11.3666C31.3485 11.6034 31.8852 11.998 32.343 12.5506C32.8166 13.0873 33.0613 13.8135 33.0771 14.7291C33.0771 15.5027 32.8561 16.1973 32.4141 16.813C31.9878 17.4129 31.3643 17.8865 30.5434 18.2338C30.2237 18.3716 29.883 18.4822 29.5211 18.5653C28.8607 18.5653 28.3254 18.5653 27.6781 18.5653Z" fill="#F5F8FA"/>
<path id="insidefi_4" fill-rule="evenodd" clip-rule="evenodd" d="M39.1247 13.3112V5.32458H35.0781V6.92282V13.3112H39.1247Z" fill="#F5F8FA"/>
<path id="insidefi_5" fill-rule="evenodd" clip-rule="evenodd" d="M37.1014 18.529C38.2188 18.529 39.1247 17.6231 39.1247 16.5057V14.8678C39.1247 14.655 38.9521 14.4824 38.7393 14.4824H35.5041C35.2688 14.4824 35.0781 14.6731 35.0781 14.9084V15.2922V16.5057C35.0781 17.6231 35.984 18.529 37.1014 18.529V18.529Z" fill="url(#paint1_linear_529_103530)"/>
<path id="insidefi_6" d="M40.6123 11.9352C40.6123 10.5775 40.8649 9.38563 41.3701 8.3595C41.891 7.33336 42.5935 6.54403 43.4776 5.99149C44.3616 5.43896 45.3483 5.16269 46.4376 5.16269C47.3059 5.16269 48.0952 5.34424 48.8056 5.70733C49.5318 6.07042 50.1001 6.55981 50.5106 7.17549V1.04236H54.5599V18.5656H50.5106V16.6712C50.1317 17.3027 49.5871 17.8078 48.8766 18.1867C48.182 18.5656 47.3798 18.5656 46.4483 18.5656C45.3591 18.5656 44.3616 18.4788 43.4776 17.9262C42.5935 17.3579 41.891 16.5607 41.3701 15.5346C40.8649 14.4926 40.6123 13.2928 40.6123 11.9352ZM50.5106 11.9589C50.5106 10.9485 50.2264 10.1513 49.6581 9.56718C49.1056 8.98307 48.4267 8.69102 47.6216 8.69102C46.8165 8.69102 46.1298 8.98307 45.5614 9.56718C45.0089 10.1355 44.7326 10.9248 44.7326 11.9352C44.7326 12.9455 45.0089 13.7507 45.5614 14.3506C46.1298 14.9347 46.8165 15.2267 47.6216 15.2267C48.4267 15.2267 49.1056 14.9347 49.6581 14.3506C50.2264 13.7664 50.5106 12.9692 50.5106 11.9589Z" fill="#F5F8FA"/>
<path id="insidefi_7" d="M69.295 11.7455C69.295 12.1244 69.2713 12.5191 69.224 12.9295H60.0598C60.1229 13.7504 60.3834 14.3819 60.8412 14.8239C61.3148 15.2502 61.891 15.4633 62.5699 15.4633C63.5802 15.4633 64.2827 15.0371 64.6774 14.1846H68.9872C68.7662 15.0528 68.3636 15.8343 67.7795 16.5289C67.2112 17.2235 66.4929 17.7682 65.6246 18.1628C64.7563 18.5575 63.7855 18.7548 62.712 18.7548C61.4174 18.7548 60.265 18.4786 59.2547 17.926C58.2443 17.3735 57.455 16.5842 56.8867 15.558C56.3183 14.5319 56.0342 13.3321 56.0342 11.9587C56.0342 10.5852 56.3104 9.38542 56.863 8.35928C57.4313 7.33315 58.2206 6.54381 59.231 5.99128C60.2413 5.43874 61.4017 5.16248 62.712 5.16248C63.9907 5.16248 65.1273 5.43085 66.1219 5.9676C67.1164 6.50435 67.89 7.27 68.4425 8.26456C69.0109 9.25913 69.295 10.4194 69.295 11.7455ZM65.151 10.6799C65.151 9.98532 64.9142 9.43278 64.4406 9.02233C63.967 8.61187 63.375 8.40664 62.6646 8.40664C61.9858 8.40664 61.4096 8.60398 60.9359 8.99865C60.4781 9.39331 60.194 9.95374 60.0835 10.6799H65.151Z" fill="#F5F8FA"/>
<path id="insidefi_8" d="M77.4089 8.71426H75.2303V18.5652H71.181V8.71426H69.7129V5.3517H71.181V4.97282C71.181 3.34678 71.6468 2.11542 72.5782 1.27872C73.5096 0.426242 74.8751 0 76.6748 0C76.9748 0 77.1958 0.00789324 77.3379 0.0236797V3.45729C76.5643 3.40993 76.0197 3.52044 75.7039 3.78881C75.3882 4.05718 75.2303 4.53868 75.2303 5.23329V5.3517H77.4089V8.71426Z" fill="#F5F8FA"/>
<path id="insidefi_9" fill-rule="evenodd" clip-rule="evenodd" d="M83.4997 18.5289V6.28284H79.4531V8.73346V18.5289H83.4997Z" fill="#F5F8FA"/>
<path id="insidefi_10" d="M81.4764 1.06494C82.5938 1.06494 83.4997 1.97079 83.4997 3.08821V4.72609C83.4997 4.93893 83.3271 5.11148 83.1143 5.11148H79.8385C79.6257 5.11148 79.4531 4.93893 79.4531 4.72609V3.08821C79.4531 1.97079 80.359 1.06494 81.4764 1.06494V1.06494Z" fill="url(#paint2_linear_529_103530)"/>
</g>
<defs>
<linearGradient id="paint0_linear_529_103530" x1="2.52327" y1="5.32458" x2="2.52327" y2="26.7286" gradientUnits="userSpaceOnUse">
<stop stop-color="#007FFF"/>
<stop offset="1" stop-color="#00D8FF"/>
</linearGradient>
<linearGradient id="paint1_linear_529_103530" x1="37.1014" y1="14.4824" x2="37.1014" y2="18.529" gradientUnits="userSpaceOnUse">
<stop stop-color="#007FFF"/>
<stop offset="1" stop-color="#00D8FF"/>
</linearGradient>
<linearGradient id="paint2_linear_529_103530" x1="81.4764" y1="1.06494" x2="81.4764" y2="5.11147" gradientUnits="userSpaceOnUse">
<stop stop-color="#007FFF"/>
<stop offset="1" stop-color="#00D8FF"/>
</linearGradient>
</defs>
</svg>
