<svg preserveAspectRatio="none" width="100%" height="100%" overflow="visible" style="display: block;" viewBox="0 0 96 31" fill="none" xmlns="http://www.w3.org/2000/svg">
<g id="Group 315">
<path id="insidefi" d="M17.0967 6.19017C18.8861 6.19017 20.3426 6.61014 21.4016 7.77872C22.4789 8.92905 23.0176 10.5176 23.0176 12.5444V21.4731H18.3615V13.1743C18.3615 12.1518 18.0967 11.3575 17.5672 10.7915C17.0377 10.2255 16.3256 9.94243 15.4309 9.94243C14.5362 9.94243 13.8241 10.2255 13.2946 10.7915C12.765 11.3575 12.5003 12.1518 12.5003 13.1743V21.4731H7.81681V6.19017H12.5003V8.21694C12.975 7.54135 13.6141 7.01184 14.4175 6.62839C15.0808 6.29676 15.8125 6.24802 16.6127 6.19017C16.7817 6.17795 16.9215 6.19017 17.0967 6.19017Z" fill="var(--fill-0, #F5F8FA)"/>
<path id="insidefi_2" fill-rule="evenodd" clip-rule="evenodd" d="M4.18763 30.9147C4.45972 30.9147 4.68029 30.6942 4.68029 30.4221V8.49862C4.68029 7.2062 3.63257 6.15848 2.34014 6.15848C1.04772 6.15848 0 7.20619 0 8.49862V30.4221C0 30.6942 0.220573 30.9147 0.492663 30.9147H4.18763Z" fill="url(#paint0_linear_4549_131)"/>
<path id="insidefi_3" d="M31.4351 21.4729C30.1022 21.4729 28.9701 21.4638 27.9293 21.0073C26.8886 20.5509 26.0669 19.93 25.4643 19.1449C24.8618 18.3415 24.524 17.4468 24.451 16.4608H29.0797C29.1344 16.9903 29.3809 17.4194 29.8192 17.7481C30.2574 18.0767 30.796 18.2411 31.4351 18.2411C32.0194 18.2411 32.4667 18.1315 32.7771 17.9124C33.1058 17.675 33.2701 17.3738 33.2701 17.0086C33.2701 16.5704 33.0419 16.2508 32.5854 16.05C32.1289 15.8309 31.3894 15.5935 30.3669 15.3379C29.2714 15.0822 28.3584 14.8175 27.628 14.5436C26.8977 14.2514 26.2677 13.8041 25.7382 13.2015C25.2087 12.5807 24.944 11.7499 24.944 10.7092C24.944 9.83272 25.1813 9.03844 25.6561 8.32634C26.1491 7.59597 26.8612 7.0208 27.7924 6.60084C28.7419 6.18088 29.7279 6.19001 31.0243 6.19001C32.9415 6.19001 34.5848 6.44564 35.6804 7.39512C36.7942 8.3446 37.4332 9.60448 37.5976 11.1748H33.2701C33.1971 10.6452 32.9597 10.2253 32.558 9.91488C32.1746 9.60448 31.6633 9.44928 31.0243 9.44928C30.4765 9.44928 30.0565 9.55883 29.7644 9.77794C29.4722 9.97879 29.3262 10.2618 29.3262 10.627C29.3262 10.834 29.3771 11.0166 29.479 11.1748C29.5928 11.3513 29.7701 11.4974 30.0109 11.613C30.4856 11.8321 31.216 12.0512 32.202 12.2703C33.334 12.5625 34.2561 12.8546 34.9682 13.1468C35.6803 13.4206 36.3012 13.8771 36.8307 14.5162C37.3785 15.137 37.6615 15.9769 37.6797 17.036C37.6797 17.9307 37.4241 18.7341 36.9128 19.4462C36.4198 20.14 35.6986 20.6878 34.7491 21.0895C34.3795 21.249 33.9853 21.3768 33.5667 21.4729C32.803 21.4729 32.1838 21.4729 31.4351 21.4729Z" fill="var(--fill-0, #F5F8FA)"/>
<path id="insidefi_4" fill-rule="evenodd" clip-rule="evenodd" d="M44.6743 15.3959V6.15848H39.994V8.00702V15.3959H44.6743Z" fill="var(--fill-0, #F5F8FA)"/>
<path id="insidefi_5" fill-rule="evenodd" clip-rule="evenodd" d="M42.3342 21.4309C43.6266 21.4309 44.6743 20.3832 44.6743 19.0907V17.1963C44.6743 16.9502 44.4748 16.7506 44.2286 16.7506H40.4867C40.2146 16.7506 39.994 16.9712 39.994 17.2433V17.6872V19.0907C39.994 20.3832 41.0418 21.4309 42.3342 21.4309Z" fill="url(#paint1_linear_4549_131)"/>
<path id="insidefi_6" d="M46.3949 13.8043C46.3949 12.234 46.687 10.8555 47.2713 9.66862C47.8739 8.48177 48.6864 7.56881 49.7089 6.92974C50.7315 6.29067 51.8727 5.97113 53.1325 5.97113C54.1368 5.97113 55.0498 6.18111 55.8714 6.60108C56.7113 7.02104 57.3687 7.58707 57.8434 8.29918V1.20549H62.5269V21.4732H57.8434V19.2821C57.4052 20.0124 56.7752 20.5967 55.9536 21.035C55.1502 21.4732 54.2222 21.4732 53.145 21.4732C51.8851 21.4732 50.7315 21.3727 49.7089 20.7337C48.6864 20.0763 47.8739 19.1543 47.2713 17.9674C46.687 16.7623 46.3949 15.3746 46.3949 13.8043ZM57.8434 13.8317C57.8434 12.6631 57.5147 11.741 56.8574 11.0654C56.2183 10.3899 55.4332 10.0521 54.502 10.0521C53.5708 10.0521 52.7765 10.3899 52.1192 11.0654C51.4801 11.7228 51.1606 12.6357 51.1606 13.8043C51.1606 14.9729 51.4801 15.9041 52.1192 16.598C52.7765 17.2736 53.5708 17.6114 54.502 17.6114C55.4332 17.6114 56.2183 17.2736 56.8574 16.598C57.5147 15.9224 57.8434 15.0003 57.8434 13.8317Z" fill="var(--fill-0, #F5F8FA)"/>
<path id="insidefi_7" d="M79.5693 13.5851C79.5693 14.0233 79.542 14.4798 79.4872 14.9545H68.8877C68.9608 15.904 69.262 16.6343 69.7915 17.1456C70.3393 17.6386 71.0058 17.8851 71.7909 17.8851C72.9595 17.8851 73.7721 17.3921 74.2285 16.4061H79.2133C78.9577 17.4103 78.4921 18.3142 77.8165 19.1176C77.1591 19.921 76.3283 20.5509 75.3241 21.0074C74.3198 21.4639 73.1969 21.6921 71.9553 21.6921C70.458 21.6921 69.1251 21.3726 67.9565 20.7335C66.7879 20.0944 65.875 19.1815 65.2176 17.9946C64.5603 16.8078 64.2316 15.4201 64.2316 13.8316C64.2316 12.243 64.5512 10.8553 65.1902 9.66846C65.8476 8.48161 66.7605 7.56866 67.9291 6.92958C69.0977 6.29051 70.4398 5.97098 71.9553 5.97098C73.4343 5.97098 74.7489 6.28138 75.8992 6.9022C77.0496 7.52301 77.9443 8.40858 78.5833 9.5589C79.2407 10.7092 79.5693 12.0513 79.5693 13.5851ZM74.7763 12.3526C74.7763 11.5492 74.5024 10.9101 73.9547 10.4353C73.4069 9.96061 72.7221 9.72324 71.9005 9.72324C71.1153 9.72324 70.4489 9.95148 69.9011 10.408C69.3716 10.8644 69.0429 11.5126 68.9151 12.3526H74.7763Z" fill="var(--fill-0, #F5F8FA)"/>
<path id="insidefi_8" d="M88.9541 10.0791H86.4343V21.4729H81.7508V10.0791H80.0527V6.18994H81.7508V5.75172C81.7508 3.87102 82.2895 2.44681 83.3668 1.47907C84.4441 0.493074 86.0235 7.5937e-05 88.105 7.5937e-05C88.452 7.5937e-05 88.7076 0.00920539 88.8719 0.0274643V3.99884C87.9772 3.94406 87.3473 4.07187 86.9821 4.38228C86.6169 4.69268 86.4343 5.24959 86.4343 6.05299V6.18994H88.9541V10.0791Z" fill="var(--fill-0, #F5F8FA)"/>
<path id="insidefi_9" fill-rule="evenodd" clip-rule="evenodd" d="M95.9992 21.4309V7.26691H91.3189V10.1013V21.4309H95.9992Z" fill="var(--fill-0, #F5F8FA)"/>
<path id="insidefi_10" d="M93.6591 1.23176C94.9515 1.23176 95.9992 2.27947 95.9992 3.5719V5.4663C95.9992 5.71248 95.7996 5.91205 95.5535 5.91205H91.7647C91.5185 5.91205 91.3189 5.71248 91.3189 5.4663V3.5719C91.3189 2.27947 92.3666 1.23176 93.6591 1.23176Z" fill="url(#paint2_linear_4549_131)"/>
</g>
<defs>
<linearGradient id="paint0_linear_4549_131" x1="2.34014" y1="6.15848" x2="2.34014" y2="30.9147" gradientUnits="userSpaceOnUse">
<stop stop-color="#007FFF"/>
<stop offset="1" stop-color="#00D8FF"/>
</linearGradient>
<linearGradient id="paint1_linear_4549_131" x1="42.3342" y1="16.7506" x2="42.3342" y2="21.4309" gradientUnits="userSpaceOnUse">
<stop stop-color="#007FFF"/>
<stop offset="1" stop-color="#00D8FF"/>
</linearGradient>
<linearGradient id="paint2_linear_4549_131" x1="93.6591" y1="1.23176" x2="93.6591" y2="5.91205" gradientUnits="userSpaceOnUse">
<stop stop-color="#007FFF"/>
<stop offset="1" stop-color="#00D8FF"/>
</linearGradient>
</defs>
</svg>
