<svg preserveAspectRatio="none" width="100%" height="100%" overflow="visible" style="display: block;" viewBox="0 0 18 20" fill="none" xmlns="http://www.w3.org/2000/svg">
<g id="Group">
<path id="Vector" d="M11.5 18.8333H0.5V3.25C0.5 0.974833 0.974833 0.5 3.25 0.5H8.75C11.0252 0.5 11.5 0.974833 11.5 3.25V18.8333ZM11.5 18.8333V6H14.25C16.5252 6 17 6.47483 17 8.75V18.8333H11.5Z" stroke="var(--stroke-0, #F5F8FA)" stroke-linejoin="round"/>
<path id="Vector_2" d="M5.08333 4.16667H6.91667M5.08333 6.91667H6.91667M5.08333 9.66667H6.91667" stroke="var(--stroke-0, #F5F8FA)" stroke-linecap="round" stroke-linejoin="round"/>
<path id="Vector_3" d="M8.29167 18.8333V15.1667C8.29167 14.3023 8.29167 13.8705 8.02308 13.6019C7.7545 13.3333 7.32275 13.3333 6.45833 13.3333H5.54167C4.67725 13.3333 4.2455 13.3333 3.97692 13.6019C3.70833 13.8705 3.70833 14.3023 3.70833 15.1667V18.8333" stroke="var(--stroke-0, #F5F8FA)" stroke-linejoin="round"/>
</g>
</svg>
