<svg preserveAspectRatio="none" width="100%" height="100%" overflow="visible" style="display: block;" viewBox="0 0 18 16" fill="none" xmlns="http://www.w3.org/2000/svg">
<g id="akar-icons:discord-fill">
<path id="Vector" d="M14.8991 3.02794C13.7771 2.53731 12.5745 2.17466 11.3168 1.96845C11.3056 1.96637 11.294 1.96771 11.2837 1.9723C11.2733 1.97689 11.2646 1.98449 11.2589 1.99405C11.1049 2.25644 10.9333 2.59846 10.813 2.86866C9.47921 2.67542 8.12318 2.67542 6.78936 2.86866C6.6554 2.56921 6.50435 2.27722 6.3369 1.99405C6.33123 1.98437 6.32264 1.9766 6.31229 1.97177C6.30194 1.96694 6.29032 1.96529 6.27897 1.96703C5.02207 2.17324 3.81944 2.53588 2.69674 3.02723C2.68708 3.03116 2.67889 3.03786 2.67327 3.04643C0.391208 6.29955 -0.234307 9.47232 0.0729503 12.6053C0.0738053 12.6129 0.0762616 12.6204 0.0801697 12.6271C0.0840779 12.6338 0.089356 12.6397 0.095683 12.6444C1.42767 13.5847 2.91331 14.301 4.49042 14.7633C4.50142 14.7666 4.51318 14.7666 4.52416 14.7633C4.53515 14.76 4.54486 14.7536 4.55202 14.7449C4.89139 14.3048 5.19213 13.8379 5.45106 13.349C5.45466 13.3424 5.45673 13.335 5.45713 13.3275C5.45754 13.3199 5.45628 13.3124 5.45343 13.3054C5.45058 13.2984 5.44621 13.2921 5.44061 13.2868C5.43502 13.2816 5.42833 13.2776 5.421 13.2751C4.94728 13.1021 4.48828 12.8934 4.04824 12.6508C4.04033 12.6464 4.03367 12.6402 4.02884 12.6327C4.02402 12.6252 4.0212 12.6167 4.02061 12.6079C4.02003 12.5991 4.02172 12.5902 4.02551 12.5822C4.02931 12.5742 4.0351 12.5672 4.04237 12.5619C4.13477 12.4958 4.22716 12.4268 4.31516 12.3578C4.32308 12.3516 4.33262 12.3477 4.34272 12.3464C4.35282 12.3452 4.36308 12.3466 4.37236 12.3507C7.25208 13.605 10.3709 13.605 13.2168 12.3507C13.2261 12.3464 13.2365 12.3447 13.2467 12.3458C13.257 12.347 13.2667 12.3509 13.2748 12.3571C13.3628 12.4268 13.4544 12.4958 13.5476 12.5619C13.5549 12.5671 13.5608 12.574 13.5647 12.5819C13.5686 12.5899 13.5704 12.5987 13.57 12.6075C13.5696 12.6163 13.5669 12.6248 13.5622 12.6324C13.5575 12.64 13.551 12.6463 13.5432 12.6508C13.1046 12.8954 12.6485 13.1023 12.1697 13.2744C12.1623 13.277 12.1556 13.281 12.15 13.2863C12.1444 13.2916 12.14 13.298 12.1372 13.3051C12.1344 13.3122 12.1331 13.3197 12.1335 13.3273C12.1339 13.3349 12.136 13.3423 12.1396 13.349C12.4036 13.8375 12.7057 14.3026 13.0379 14.7441C13.0448 14.7532 13.0544 14.76 13.0655 14.7635C13.0765 14.7671 13.0884 14.7673 13.0995 14.7641C14.6793 14.303 16.1674 13.5864 17.5008 12.6444C17.5074 12.64 17.5128 12.6343 17.5169 12.6276C17.5209 12.621 17.5234 12.6136 17.5243 12.606C17.891 8.98382 16.9098 5.83664 14.9218 3.04785C14.9169 3.03879 14.9088 3.03172 14.8991 3.02794ZM5.88152 10.6975C5.01474 10.6975 4.29976 9.93735 4.29976 9.00515C4.29976 8.07223 5.00081 7.31281 5.88152 7.31281C6.76882 7.31281 7.4772 8.07863 7.46327 9.00515C7.46327 9.93806 6.76222 10.6975 5.88152 10.6975V10.6975ZM11.7297 10.6975C10.8622 10.6975 10.1479 9.93735 10.1479 9.00515C10.1479 8.07223 10.8482 7.31281 11.7297 7.31281C12.617 7.31281 13.3254 8.07863 13.3114 9.00515C13.3114 9.93806 12.6177 10.6975 11.7297 10.6975V10.6975Z" fill="var(--fill-0, #ECECEC)"/>
</g>
</svg>
