<svg preserveAspectRatio="none" width="100%" height="100%" overflow="visible" style="display: block;" viewBox="0 0 16 16" fill="none" xmlns="http://www.w3.org/2000/svg">
<g id="ion:logo-linkedin" clip-path="url(#clip0_4549_112)">
<path id="Vector" d="M13.9843 0.522461H1.29878C0.605624 0.522461 0 1.02121 0 1.70623V14.4199C0 15.1087 0.605624 15.7225 1.29878 15.7225H13.9806C14.6775 15.7225 15.2 15.1046 15.2 14.4199V1.70623C15.204 1.02121 14.6775 0.522461 13.9843 0.522461ZM4.71165 13.1924H2.53412V6.42196H4.71165V13.1924ZM3.69821 5.39257H3.6826C2.98571 5.39257 2.53446 4.8738 2.53446 4.22441C2.53446 3.56314 2.99758 3.05659 3.71008 3.05659C4.42258 3.05659 4.85856 3.55941 4.87417 4.22441C4.87383 4.8738 4.42258 5.39257 3.69821 5.39257ZM12.6699 13.1924H10.4924V9.49046C10.4924 8.60357 10.1755 7.9976 9.38768 7.9976C8.78579 7.9976 8.42954 8.40475 8.27109 8.80137C8.21172 8.94387 8.19577 9.13794 8.19577 9.33608V13.1924H6.01824V6.42196H8.19577V7.36416C8.51266 6.91291 9.00768 6.26351 10.1596 6.26351C11.589 6.26351 12.6703 7.20571 12.6703 9.23701L12.6699 13.1924Z" fill="var(--fill-0, #ECECEC)"/>
</g>
<defs>
<clipPath id="clip0_4549_112">
<rect width="16" height="16" fill="white"/>
</clipPath>
</defs>
</svg>
