<svg preserveAspectRatio="none" width="100%" height="100%" overflow="visible" style="display: block;" viewBox="0 0 75 25" fill="none" xmlns="http://www.w3.org/2000/svg">
<g id="Group 315">
<path id="insidefi" d="M13.3568 4.83637C14.7548 4.83637 15.8927 5.16446 16.7201 6.07743C17.5617 6.97613 17.9825 8.21719 17.9825 9.80062V16.7763H14.3449V10.2928C14.3449 9.49392 14.1381 8.87339 13.7244 8.43117C13.3107 7.98895 12.7544 7.76784 12.0554 7.76784C11.3564 7.76784 10.8 7.98895 10.3863 8.43117C9.97266 8.87339 9.76581 9.49392 9.76581 10.2928V16.7763H6.10681V4.83637H9.76581V6.41979C10.1367 5.89198 10.636 5.47829 11.2636 5.17873C11.7818 4.91963 12.3535 4.88156 12.9786 4.83637C13.1107 4.82682 13.2199 4.83637 13.3568 4.83637Z" fill="var(--fill-0, #F5F8FA)"/>
<path id="insidefi_2" fill-rule="evenodd" clip-rule="evenodd" d="M3.27161 24.1526C3.48418 24.1526 3.65651 23.9803 3.65651 23.7677V6.63984C3.65651 5.63012 2.83797 4.81158 1.82825 4.81158C0.818536 4.81158 0 5.63012 0 6.63984V23.7677C0 23.9803 0.172323 24.1526 0.384895 24.1526H3.27161Z" fill="url(#paint0_linear_4549_143)"/>
<path id="insidefi_3" d="M24.5588 16.7757C23.5174 16.7757 22.633 16.7686 21.8199 16.412C21.0067 16.0553 20.3648 15.5703 19.8941 14.9569C19.4233 14.3293 19.1594 13.6303 19.1024 12.86H22.7186C22.7614 13.2737 22.9539 13.6089 23.2963 13.8657C23.6387 14.1224 24.0595 14.2508 24.5588 14.2508C25.0152 14.2508 25.3647 14.1652 25.6072 13.994C25.864 13.8086 25.9924 13.5732 25.9924 13.2879C25.9924 12.9456 25.8141 12.6959 25.4575 12.539C25.1008 12.3678 24.5231 12.1824 23.7242 11.9827C22.8683 11.783 22.1551 11.5761 21.5845 11.3621C21.0139 11.1339 20.5217 10.7844 20.108 10.3136C19.6944 9.82863 19.4875 9.17957 19.4875 8.36646C19.4875 7.68173 19.673 7.0612 20.0439 6.50486C20.429 5.93426 20.9853 5.48491 21.7129 5.15681C22.4547 4.82871 23.225 4.83585 24.2378 4.83585C25.7356 4.83585 27.0195 5.03556 27.8754 5.77734C28.7456 6.51913 29.2448 7.50342 29.3732 8.73022H25.9924C25.9353 8.31653 25.7499 7.98843 25.4361 7.74593C25.1365 7.50342 24.7371 7.38217 24.2378 7.38217C23.8098 7.38217 23.4817 7.46776 23.2535 7.63894C23.0253 7.79586 22.9111 8.01696 22.9111 8.30226C22.9111 8.46402 22.9509 8.60667 23.0306 8.73022C23.1194 8.86816 23.2579 8.98228 23.4461 9.07258C23.817 9.24376 24.3876 9.41494 25.1579 9.58612C26.0423 9.81437 26.7627 10.0426 27.3191 10.2708C27.8754 10.4848 28.3604 10.8415 28.7741 11.3407C29.202 11.8257 29.4232 12.4819 29.4374 13.3093C29.4374 14.0083 29.2377 14.636 28.8383 15.1923C28.4531 15.7344 27.8897 16.1623 27.1479 16.4762C26.8591 16.6008 26.5511 16.7006 26.2241 16.7757C25.6274 16.7757 25.1437 16.7757 24.5588 16.7757Z" fill="var(--fill-0, #F5F8FA)"/>
<path id="insidefi_4" fill-rule="evenodd" clip-rule="evenodd" d="M34.9022 12.0284V4.81158H31.2457V6.25577V12.0284H34.9022Z" fill="var(--fill-0, #F5F8FA)"/>
<path id="insidefi_5" fill-rule="evenodd" clip-rule="evenodd" d="M33.074 16.743C34.0837 16.743 34.9022 15.9244 34.9022 14.9147V13.4347C34.9022 13.2424 34.7463 13.0865 34.554 13.0865H31.6306C31.418 13.0865 31.2457 13.2588 31.2457 13.4714V13.8182V14.9147C31.2457 15.9244 32.0642 16.743 33.074 16.743Z" fill="url(#paint1_linear_4549_143)"/>
<path id="insidefi_6" d="M36.2465 10.7848C36.2465 9.55799 36.4747 8.48098 36.9312 7.55375C37.4019 6.62652 38.0367 5.91326 38.8356 5.41398C39.6344 4.9147 40.526 4.66506 41.5103 4.66506C42.2949 4.66506 43.0081 4.82911 43.6501 5.15721C44.3063 5.48531 44.8198 5.92753 45.1907 6.48386V0.941874H48.8497V16.7761H45.1907V15.0643C44.8483 15.6349 44.3562 16.0914 43.7143 16.4338C43.0866 16.7761 42.3616 16.7761 41.52 16.7761C40.5357 16.7761 39.6344 16.6977 38.8356 16.1984C38.0367 15.6849 37.4019 14.9645 36.9312 14.0372C36.4747 13.0957 36.2465 12.0116 36.2465 10.7848ZM45.1907 10.8062C45.1907 9.89322 44.9339 9.17284 44.4204 8.64503C43.9211 8.11722 43.3077 7.85331 42.5802 7.85331C41.8527 7.85331 41.2321 8.11722 40.7186 8.64503C40.2193 9.15857 39.9697 9.87183 39.9697 10.7848C39.9697 11.6978 40.2193 12.4253 40.7186 12.9674C41.2321 13.4952 41.8527 13.7591 42.5802 13.7591C43.3077 13.7591 43.9211 13.4952 44.4204 12.9674C44.9339 12.4395 45.1907 11.7192 45.1907 10.8062Z" fill="var(--fill-0, #F5F8FA)"/>
<path id="insidefi_7" d="M62.164 10.6136C62.164 10.956 62.1426 11.3126 62.0998 11.6835H53.8189C53.8759 12.4253 54.1113 12.9959 54.525 13.3953C54.953 13.7805 55.4736 13.9731 56.087 13.9731C57 13.9731 57.6348 13.5879 57.9914 12.8176H61.8858C61.6861 13.6022 61.3223 14.3083 60.7945 14.936C60.281 15.5636 59.6319 16.0558 58.8473 16.4124C58.0628 16.769 57.1855 16.9474 56.2154 16.9474C55.0457 16.9474 54.0043 16.6977 53.0914 16.1984C52.1784 15.6992 51.4651 14.9859 50.9516 14.0587C50.4381 13.1314 50.1813 12.0473 50.1813 10.8062C50.1813 9.56516 50.4309 8.48101 50.9302 7.55378C51.4437 6.62655 52.157 5.9133 53.07 5.41402C53.9829 4.91474 55.0314 4.6651 56.2154 4.6651C57.3709 4.6651 58.398 4.90761 59.2967 5.39262C60.1954 5.87763 60.8944 6.56949 61.3937 7.46819C61.9072 8.36689 62.164 9.41538 62.164 10.6136ZM58.4194 9.65075C58.4194 9.02309 58.2054 8.52381 57.7775 8.15292C57.3495 7.78202 56.8146 7.59658 56.1726 7.59658C55.5592 7.59658 55.0386 7.77489 54.6106 8.13152C54.1969 8.48815 53.9401 8.99456 53.8403 9.65075H58.4194Z" fill="var(--fill-0, #F5F8FA)"/>
<path id="insidefi_8" d="M69.4956 7.87445H67.5271V16.7759H63.8681V7.87445H62.5414V4.83599H63.8681V4.49363C63.8681 3.02432 64.2889 1.91164 65.1305 1.15559C65.9722 0.385276 67.2061 0.000117585 68.8323 0.000117585C69.1033 0.000117585 69.3031 0.00725003 69.4314 0.021515V3.12418C68.7325 3.08138 68.2403 3.18124 67.955 3.42374C67.6697 3.66625 67.5271 4.10133 67.5271 4.729V4.83599H69.4956V7.87445Z" fill="var(--fill-0, #F5F8FA)"/>
<path id="insidefi_9" fill-rule="evenodd" clip-rule="evenodd" d="M74.9998 16.7429V5.67713H71.3433V7.89155V16.7429H74.9998Z" fill="var(--fill-0, #F5F8FA)"/>
<path id="insidefi_10" d="M73.1716 0.962411C74.1813 0.962411 74.9998 1.78095 74.9998 2.79066V4.27068C74.9998 4.46301 74.8439 4.61892 74.6516 4.61892H71.6916C71.4992 4.61892 71.3433 4.46301 71.3433 4.27068V2.79066C71.3433 1.78095 72.1619 0.962411 73.1716 0.962411Z" fill="url(#paint2_linear_4549_143)"/>
</g>
<defs>
<linearGradient id="paint0_linear_4549_143" x1="1.82825" y1="4.81158" x2="1.82825" y2="24.1526" gradientUnits="userSpaceOnUse">
<stop stop-color="#007FFF"/>
<stop offset="1" stop-color="#00D8FF"/>
</linearGradient>
<linearGradient id="paint1_linear_4549_143" x1="33.074" y1="13.0865" x2="33.074" y2="16.743" gradientUnits="userSpaceOnUse">
<stop stop-color="#007FFF"/>
<stop offset="1" stop-color="#00D8FF"/>
</linearGradient>
<linearGradient id="paint2_linear_4549_143" x1="73.1716" y1="0.962411" x2="73.1716" y2="4.61892" gradientUnits="userSpaceOnUse">
<stop stop-color="#007FFF"/>
<stop offset="1" stop-color="#00D8FF"/>
</linearGradient>
</defs>
</svg>
