<svg preserveAspectRatio="none" width="100%" height="100%" overflow="visible" style="display: block;" viewBox="0 0 28 28" fill="none" xmlns="http://www.w3.org/2000/svg">
<g id="Group 175">
<rect id="IMAGE" width="27.4775" height="27.4775" rx="13.7388" fill="var(--fill-0, #132F4C)"/>
<g id="Vector">
<path fill-rule="evenodd" clip-rule="evenodd" d="M13.9775 14.5322C13.5608 14.5322 13.1481 14.4501 12.763 14.2906C12.378 14.1311 12.0281 13.8973 11.7334 13.6026C11.4387 13.3079 11.205 12.9581 11.0455 12.573C10.886 12.188 10.8039 11.7753 10.8039 11.3585C10.8039 10.9418 10.886 10.5291 11.0455 10.144C11.205 9.75898 11.4387 9.40912 11.7334 9.11441C12.0281 8.81971 12.378 8.58594 12.763 8.42645C13.1481 8.26696 13.5608 8.18487 13.9775 8.18487C14.8192 8.18487 15.6265 8.51924 16.2217 9.11441C16.8168 9.70959 17.1512 10.5168 17.1512 11.3585C17.1512 12.2002 16.8168 13.0075 16.2217 13.6026C15.6265 14.1978 14.8192 14.5322 13.9775 14.5322ZM15.4736 12.8546C15.0768 13.2514 14.5387 13.4743 13.9775 13.4743C13.4164 13.4743 12.8782 13.2514 12.4815 12.8546C12.0847 12.4578 11.8618 11.9197 11.8618 11.3585C11.8618 10.7974 12.0847 10.2592 12.4815 9.86245C12.8782 9.46567 13.4164 9.24276 13.9775 9.24276C14.5387 9.24276 15.0768 9.46567 15.4736 9.86245C15.8704 10.2592 16.0933 10.7974 16.0933 11.3585C16.0933 11.9197 15.8704 12.4578 15.4736 12.8546Z" fill="var(--fill-0, #F5F8FA)"/>
</g>
<path id="Vector_2" d="M18.4736 19.2927H17.3495V18.3859C17.3495 18.0252 17.1719 17.6792 16.8557 17.4241C16.5395 17.1691 16.1107 17.0258 15.6635 17.0258H12.2915C11.8444 17.0258 11.4155 17.1691 11.0993 17.4241C10.7832 17.6792 10.6055 18.0252 10.6055 18.3859V19.2927H9.48153V18.3859C9.48153 17.7847 9.77758 17.2081 10.3046 16.783C10.8315 16.3578 11.5463 16.119 12.2915 16.119H15.6635C16.4088 16.119 17.1235 16.3578 17.6505 16.783C18.1775 17.2081 18.4736 17.7847 18.4736 18.3859V19.2927Z" fill="var(--fill-0, #F5F8FA)"/>
</g>
</svg>
