<svg preserveAspectRatio="none" width="100%" height="100%" overflow="visible" style="display: block;" viewBox="0 0 15 15" fill="none" xmlns="http://www.w3.org/2000/svg">
<g id="Group">
<path id="Vector" d="M0.5 7.5C0.5 9.35652 1.2375 11.137 2.55025 12.4497C3.86301 13.7625 5.64348 14.5 7.5 14.5C9.35652 14.5 11.137 13.7625 12.4497 12.4497C13.7625 11.137 14.5 9.35652 14.5 7.5C14.5 5.64348 13.7625 3.86301 12.4497 2.55025C11.137 1.2375 9.35652 0.5 7.5 0.5C5.64348 0.5 3.86301 1.2375 2.55025 2.55025C1.2375 3.86301 0.5 5.64348 0.5 7.5Z" stroke="var(--stroke-0, #F5F8FA)" stroke-linejoin="round"/>
<path id="Vector_2" d="M4.5 7.5C4.5 5.64348 4.81607 3.86301 5.37868 2.55025C5.94129 1.2375 6.70435 0.5 7.5 0.5C8.29565 0.5 9.05871 1.2375 9.62132 2.55025C10.1839 3.86301 10.5 5.64348 10.5 7.5C10.5 9.35652 10.1839 11.137 9.62132 12.4497C9.05871 13.7625 8.29565 14.5 7.5 14.5C6.70435 14.5 5.94129 13.7625 5.37868 12.4497C4.81607 11.137 4.5 9.35652 4.5 7.5Z" stroke="var(--stroke-0, #F5F8FA)" stroke-linejoin="round"/>
<path id="Vector_3" d="M1 9.83334H14M1 5.16667H14" stroke="var(--stroke-0, #F5F8FA)" stroke-linecap="round"/>
</g>
</svg>
